<?xml version="1.0" encoding="UTF-8" standalone="no"?>
<!-- Created with Inkscape (http://www.inkscape.org/) -->

<svg
   width="120mm"
   height="120mm"
   viewBox="0 0 120 120"
   version="1.1"
   id="svg1"
   inkscape:version="1.4 (e7c3feb1, 2024-10-09)"
   sodipodi:docname="cgp-logo-20250209.svg"
   inkscape:export-filename="cgp-logo-20250209-32px.png"
   inkscape:export-xdpi="7.0999999"
   inkscape:export-ydpi="7.0999999"
   xmlns:inkscape="http://www.inkscape.org/namespaces/inkscape"
   xmlns:sodipodi="http://sodipodi.sourceforge.net/DTD/sodipodi-0.dtd"
   xmlns="http://www.w3.org/2000/svg"
   xmlns:svg="http://www.w3.org/2000/svg">
  <sodipodi:namedview
     id="namedview1"
     pagecolor="#ffffff"
     bordercolor="#000000"
     borderopacity="0.25"
     inkscape:showpageshadow="2"
     inkscape:pageopacity="0.0"
     inkscape:pagecheckerboard="0"
     inkscape:deskcolor="#d1d1d1"
     inkscape:document-units="mm"
     inkscape:zoom="1.4823793"
     inkscape:cx="176.0683"
     inkscape:cy="245.88848"
     inkscape:window-width="1512"
     inkscape:window-height="916"
     inkscape:window-x="0"
     inkscape:window-y="38"
     inkscape:window-maximized="1"
     inkscape:current-layer="layer1" />
  <defs
     id="defs1">
    <clipPath
       clipPathUnits="userSpaceOnUse"
       id="clipPath376">
      <path
         d="M 0,1000 H 1000 V 0 H 0 Z"
         transform="translate(-641.14359,-499.12531)"
         id="path376" />
    </clipPath>
    <clipPath
       clipPathUnits="userSpaceOnUse"
       id="clipPath378">
      <path
         d="M 0,1000 H 1000 V 0 H 0 Z"
         transform="translate(-495.48444,-544.64291)"
         id="path378" />
    </clipPath>
    <clipPath
       clipPathUnits="userSpaceOnUse"
       id="clipPath380">
      <path
         d="M 0,1000 H 1000 V 0 H 0 Z"
         transform="translate(-491.02831,-380.02371)"
         id="path380" />
    </clipPath>
    <clipPath
       clipPathUnits="userSpaceOnUse"
       id="clipPath382">
      <path
         d="M 0,1000 H 1000 V 0 H 0 Z"
         transform="translate(-491.02831,-619.97691)"
         id="path382" />
    </clipPath>
    <clipPath
       clipPathUnits="userSpaceOnUse"
       id="clipPath384">
      <path
         d="M 0,1000 H 1000 V 0 H 0 Z"
         transform="translate(-404.75491,-437.05111)"
         id="path384" />
    </clipPath>
    <clipPath
       clipPathUnits="userSpaceOnUse"
       id="clipPath376-2">
      <path
         d="M 0,1000 H 1000 V 0 H 0 Z"
         transform="translate(-641.14359,-499.12531)"
         id="path376-5" />
    </clipPath>
    <clipPath
       clipPathUnits="userSpaceOnUse"
       id="clipPath378-1">
      <path
         d="M 0,1000 H 1000 V 0 H 0 Z"
         transform="translate(-495.48444,-544.64291)"
         id="path378-3" />
    </clipPath>
    <clipPath
       clipPathUnits="userSpaceOnUse"
       id="clipPath380-9">
      <path
         d="M 0,1000 H 1000 V 0 H 0 Z"
         transform="translate(-491.02831,-380.02371)"
         id="path380-7" />
    </clipPath>
    <clipPath
       clipPathUnits="userSpaceOnUse"
       id="clipPath382-3">
      <path
         d="M 0,1000 H 1000 V 0 H 0 Z"
         transform="translate(-491.02831,-619.97691)"
         id="path382-7" />
    </clipPath>
    <clipPath
       clipPathUnits="userSpaceOnUse"
       id="clipPath384-5">
      <path
         d="M 0,1000 H 1000 V 0 H 0 Z"
         transform="translate(-404.75491,-437.05111)"
         id="path384-0" />
    </clipPath>
  </defs>
  <g
     inkscape:label="Layer 1"
     inkscape:groupmode="layer"
     id="layer1"
     transform="translate(-62.501473,-121.39813)">
    <g
       id="g1"
       transform="translate(2.7262933,15.089794)">
      <path
         id="path375"
         d="m -9,0 c -4.763,-4.02 -8.71141,-5.944 -17.47641,-5.944 h -16.32 v 46.737 h 16.32 c 8.612,0 12.71341,-1.943 17.34341,-5.678 4.7629997,-3.849 6.9919997,-9.527 6.9919997,-17.243 C -2.1410003,9.832 -4.3700003,3.868 -9,0 m 27.551,36.753 c -2.248,5.24 -5.373,9.832 -9.6979996,13.414 -4.2880007,3.695 -9.50700061,6.535 -15.6240007,8.479 C -12.867,60.569 -17.40741,61.465 -25.29441,61.465 H -77.183 c 14.804,-16.404 23.816,-38.106 23.816,-61.941 0,-0.343 0,-0.667 -0.019,-1.009 0.019,-0.401 0.019,-0.782 0.019,-1.182 0,-14.062 -3.487,-27.341 -9.659,-38.963 -0.02,-0.058 -0.038,-0.096 -0.077,-0.152 -3.982,-7.984 -9.107,-15.3 -15.147,-21.759 h 35.45359 v 36.905 h 17.502 c 7.887,0 12.42741,1.048 18.5234097,2.991 6.11700009,2.058 11.336,5.049 15.6240007,8.765 C 13.178,-11.013 16.303,-6.249 18.551,-0.609 c 2.228,5.677 3.41,12.06 3.41,19.205 0,6.707 -1.182,12.785 -3.41,18.157"
         style="fill:#8f1f1d;fill-opacity:1;fill-rule:nonzero;stroke:none"
         transform="matrix(0.34171971,0,0,-0.34171971,169.54438,166.60716)"
         clip-path="url(#clipPath376-2)"
         sodipodi:nodetypes="csccscsccccscscscccccscccsc" />
      <path
         id="path377"
         d="m 0,0 c 17.147,0 31.952,-9.24 39.896,-22.901 l 18.292,7.068 2.628,1.01 12.69,4.896 -2.268,3.945 -5.105,8.821 -15.414,-3.201 c -1.048,1.143 -2.154,2.267 -3.278,3.335 l 3.24,15.565 -8.822,5.088 -8.84,5.105 -11.374,-10.154 c -1.659,0.571 -3.335,1.048 -5.05,1.485 L 11.813,34.601 H -8.593 l -4.534,-13.795 c -2.02,-0.362 -3.982,-0.838 -5.926,-1.41 l -10.841,9.679 -8.84,-5.106 -8.822,-5.087 2.801,-13.471 c -1.753,-1.486 -3.43,-3.105 -5.011,-4.802 l -13.489,2.821 -5.088,-8.822 -5.106,-8.84 8.726,-9.755 c -0.838,-2.382 -1.543,-4.84 -2.095,-7.336 v -0.019 l -12.499,-4.096 v -20.406 l 12.137,-4.001 c 0.514,-2.61 1.181,-5.164 2,-7.678 l -8.612,-9.623 5.106,-8.839 5.087,-8.841 12.671,2.648 c 1.696,-1.925 3.525,-3.772 5.468,-5.429 l -2.686,-12.9 8.821,-5.106 8.841,-5.087 9.983,8.917 h 0.019 c 2.268,-0.724 4.573,-1.315 6.936,-1.772 l 4.267,-13.013 h 20.406 l 4.42,13.432 h 0.019 c 2.058,0.495 4.097,1.067 6.059,1.715 0.02,0 0.02,0 0.038,0.019 l 10.765,-9.641 8.841,5.106 8.84,5.087 -3.067,14.652 c 1.333,1.239 2.61,2.553 3.829,3.906 l 14.919,-3.105 5.106,8.821 5.087,8.841 -10.383,11.622 c 0.457,1.505 0.838,3.048 1.18,4.648 l 15.09,4.935 v 20.406 H 57.235 -0.076 V -57.368 H 45.117 C 40.201,-77.735 21.93,-92.825 0,-92.825 c -25.588,0 -46.413,20.824 -46.413,46.412 C -46.413,-20.825 -25.588,0 0,0"
         style="fill:#8f1f1d;fill-opacity:1;fill-rule:nonzero;stroke:none"
         transform="matrix(0.34171971,0,0,-0.34171971,119.76977,151.05291)"
         clip-path="url(#clipPath378-1)" />
      <path
         id="path379"
         d="m 0,0 c -34.192,0 -64.872,14.348 -86.853,37.244 h -1.068 c -5.19,0 -10.228,0.459 -15.111,1.222 C -78.916,8.091 -41.671,-11.448 0,-11.448 c 41.672,0 78.916,19.539 103.033,49.914 H 87.921 C 66.246,14.807 34.802,0 0,0"
         style="fill:#8f1f1d;fill-opacity:1;fill-rule:nonzero;stroke:none"
         transform="matrix(0.31884073,0,0,-0.34171971,120.60432,207.30653)"
         clip-path="url(#clipPath380-9)" />
      <path
         id="path381"
         d="m 0,0 c 35.719,0 67.925,-15.723 89.905,-40.604 h 14.808 C 80.747,-9.007 42.739,11.447 0,11.447 c -43.503,0 -82.274,-21.369 -106.086,-54.187 5.343,1.22 10.686,1.983 16.181,1.983 C -67.925,-15.723 -35.718,0 0,0"
         style="fill:#8f1f1d;fill-opacity:1;fill-rule:nonzero;stroke:none"
         transform="matrix(0.31758849,0,0,-0.34171971,120.77389,125.3098)"
         clip-path="url(#clipPath382-3)" />
      <path
         id="path383"
         d="m 0,0 c 4.344,1.01 8.555,2.458 12.765,4.192 2.439,1.162 4.916,2.305 7.069,3.601 C 19.827,7.801 19.82,7.81 19.814,7.817 16.317,13.88 12.821,19.942 9.325,26.004 8.934,25.79 8.543,25.575 8.153,25.36 L 8.152,25.358 6.687,24.636 C 6.249,24.35 5.639,24.197 5.22,23.911 -0.438,21.302 -6.25,20.006 -12.022,20.006 c -5.678,0 -10.88,1.162 -15.681,3.181 -4.916,2.172 -9.127,5.069 -12.747,8.841 -3.505,3.773 -6.401,8.136 -8.421,13.203 -2.02,5.088 -3.029,10.442 -3.029,16.253 0,5.925 1.009,11.298 3.029,16.367 2.02,5.087 4.916,9.43 8.421,13.203 3.62,3.62 7.831,6.687 12.747,8.707 4.801,2.173 10.003,3.335 15.681,3.335 4.839,0 9.583,-0.972 14.308,-2.897 l 1.048,-0.438 5.297,-2.134 c 1.371,2.763 2.915,5.411 4.592,7.964 l -4.592,-7.964 10.346,17.91 c -1.791,0.972 -3.716,1.848 -5.64,2.649 -4.192,1.733 -8.421,3.029 -12.747,3.905 -4.344,1.01 -8.707,1.448 -13.051,1.448 -8.993,0 -17.547,-1.601 -25.397,-4.782 -7.831,-3.201 -14.652,-7.679 -20.444,-13.203 -5.792,-5.507 -10.289,-12.175 -13.642,-19.721 -3.315,-7.525 -4.915,-15.661 -4.915,-24.502 0,-5.963 0.723,-11.602 2.171,-16.976 1.448,-5.373 3.64,-10.441 6.25,-15.089 2.743,-4.63 5.925,-8.822 9.85,-12.614 3.773,-3.753 8.136,-7.106 12.766,-9.716 4.782,-2.744 9.85,-4.764 15.375,-6.211 5.507,-1.468 11.165,-2.192 17.091,-2.192 4.515,0 8.859,0.439 13.356,1.467"
         style="fill:#8f1f1d;fill-opacity:1;fill-rule:nonzero;stroke:none"
         transform="matrix(0.34171971,0,0,-0.34171971,88.765708,187.81914)"
         clip-path="url(#clipPath384-5)" />
    </g>
  </g>
</svg>
